# Blender 3.3.1
# www.blender.org
mtllib untitled.mtl
o Cube.001
v 0.522620 0.181154 0.816950
v 0.607561 0.011309 0.732009
v 0.534255 0.193910 1.021235
v 0.619195 0.011309 1.106176
v 0.355672 0.181154 0.816950
v 0.270731 0.011309 0.732009
v 0.355672 0.181154 0.983898
v 0.270731 0.011309 1.068839
v 0.622362 0.152924 0.954984
v 0.646064 0.106234 0.931281
v 0.622362 0.152924 1.001570
v 0.646064 0.106234 1.025273
v 0.347245 0.051352 1.072237
v 0.397943 0.151219 1.021539
v 0.497589 0.151219 1.021539
v 0.548288 0.051352 1.072237
v 0.456423 0.233967 0.959156
v 0.376750 0.228277 0.942498
v 0.451232 0.228277 0.868016
v 0.376750 0.228277 0.868016
v 0.523672 0.075070 0.741799
v 0.340420 0.075070 0.741799
v 0.477460 0.166099 0.788011
v 0.386632 0.166099 0.788011
v 0.570627 0.096648 0.764928
v 0.302420 0.096648 1.033135
v 0.583015 0.110230 1.072891
v 0.302420 0.096648 0.764928
v 0.644227 0.130811 0.944507
v 0.644227 0.130811 1.019349
v 0.365661 0.100684 1.054983
v 0.525744 0.100684 1.054983
v 0.501922 0.121234 0.754734
v 0.356005 0.121234 0.754734
v 0.418834 0.490597 -0.247396
v 0.670576 0.009872 -0.499138
v 0.453316 0.528401 0.358052
v 0.705057 0.009872 0.609794
v -0.075957 0.490597 -0.247396
v -0.327699 0.009872 -0.499138
v -0.075957 0.490597 0.247396
v -0.327699 0.009872 0.499138
v 0.714442 0.406931 0.161701
v 0.784689 0.268554 0.091453
v 0.714442 0.406931 0.299771
v 0.784689 0.268554 0.370019
v -0.100932 0.105896 0.509208
v 0.049325 0.401876 0.358952
v 0.344649 0.401876 0.358952
v 0.494906 0.105896 0.509208
v 0.222642 0.647121 0.174065
v -0.013488 0.630255 0.124697
v 0.207259 0.630255 -0.096050
v -0.013488 0.630255 -0.096050
v 0.421950 0.176190 -0.470122
v -0.121158 0.176190 -0.470122
v 0.284991 0.445978 -0.333162
v 0.015801 0.445978 -0.333162
v 0.561114 0.240142 -0.401574
v -0.233781 0.240142 0.393321
v 0.597829 0.280396 0.511146
v -0.233781 0.240142 -0.401574
v 0.779245 0.341393 0.130650
v 0.779245 0.341393 0.352464
v -0.046353 0.252105 0.458074
v 0.428093 0.252105 0.458074
v 0.357491 0.313008 -0.431787
v -0.074969 0.313008 -0.431787
v -0.506632 0.179718 -0.490726
v -0.421692 0.009872 -0.575667
v -0.494998 0.192473 -0.286441
v -0.410057 0.009872 -0.201500
v -0.673581 0.179718 -0.490726
v -0.758521 0.009872 -0.575667
v -0.673581 0.179718 -0.323778
v -0.758521 0.009872 -0.238837
v -0.406891 0.151488 -0.352692
v -0.383188 0.104798 -0.376394
v -0.406891 0.151488 -0.306105
v -0.383188 0.104798 -0.282403
v -0.682007 0.049915 -0.235439
v -0.631309 0.149782 -0.286137
v -0.531663 0.149782 -0.286137
v -0.480965 0.049915 -0.235439
v -0.572830 0.232531 -0.348520
v -0.652503 0.226840 -0.365178
v -0.578020 0.226840 -0.439660
v -0.652503 0.226840 -0.439660
v -0.505581 0.073633 -0.565876
v -0.688832 0.073633 -0.565876
v -0.551793 0.164663 -0.519665
v -0.642620 0.164663 -0.519665
v -0.458625 0.095211 -0.542747
v -0.726832 0.095211 -0.274541
v -0.446237 0.108793 -0.234785
v -0.726832 0.095211 -0.542747
v -0.385025 0.129375 -0.363169
v -0.385025 0.129375 -0.288327
v -0.663592 0.099248 -0.252692
v -0.503508 0.099248 -0.252692
v -0.527330 0.119797 -0.552942
v -0.673247 0.119797 -0.552942
v 0.089505 0.179718 -0.944666
v 0.174446 0.009872 -1.029606
v 0.101140 0.192473 -0.740380
v 0.186080 0.009872 -0.655440
v -0.077443 0.179718 -0.944666
v -0.162384 0.009872 -1.029606
v -0.077443 0.179718 -0.777717
v -0.162384 0.009872 -0.692776
v 0.189247 0.151488 -0.806631
v 0.212949 0.104798 -0.830334
v 0.189247 0.151488 -0.760045
v 0.212949 0.104798 -0.736343
v -0.085870 0.049915 -0.689378
v -0.035172 0.149782 -0.740077
v 0.064474 0.149782 -0.740077
v 0.115173 0.049915 -0.689378
v 0.023308 0.232531 -0.802460
v -0.056365 0.226840 -0.819117
v 0.018117 0.226840 -0.893600
v -0.056365 0.226840 -0.893600
v 0.090557 0.073633 -1.019816
v -0.092695 0.073633 -1.019816
v 0.044345 0.164663 -0.973604
v -0.046483 0.164663 -0.973604
v 0.137512 0.095211 -0.996687
v -0.130695 0.095211 -0.728480
v 0.149900 0.108793 -0.688725
v -0.130695 0.095211 -0.996687
v 0.211112 0.129375 -0.817108
v 0.211112 0.129375 -0.742266
v -0.067454 0.099248 -0.706632
v 0.092629 0.099248 -0.706632
v 0.068807 0.119797 -1.006881
v -0.077110 0.119797 -1.006881
v -0.356866 0.100733 -0.099197
v -0.312947 0.012913 -0.143116
v -0.350850 0.107328 0.006430
v -0.306931 0.012913 0.050349
v -0.443188 0.100733 -0.099197
v -0.487107 0.012913 -0.143116
v -0.443188 0.100733 -0.012875
v -0.487107 0.012913 0.031044
v -0.305294 0.086136 -0.027826
v -0.293038 0.061995 -0.040081
v -0.305294 0.086136 -0.003738
v -0.293038 0.061995 0.008518
v -0.447545 0.033617 0.032801
v -0.421331 0.085254 0.006587
v -0.369808 0.085254 0.006587
v -0.343594 0.033617 0.032801
v -0.391094 0.128040 -0.025669
v -0.432289 0.125098 -0.034281
v -0.393777 0.125098 -0.072793
v -0.432289 0.125098 -0.072793
v -0.356322 0.045881 -0.138054
v -0.451073 0.045881 -0.138054
v -0.380216 0.092948 -0.114160
v -0.427179 0.092948 -0.114160
v -0.332043 0.057038 -0.126095
v -0.470722 0.057038 0.012583
v -0.325638 0.064061 0.033139
v -0.470722 0.057038 -0.126095
v -0.293988 0.074702 -0.033243
v -0.293988 0.074702 0.005455
v -0.438023 0.059125 0.023880
v -0.355250 0.059125 0.023880
v -0.367568 0.069750 -0.131366
v -0.443015 0.069750 -0.131366
vn -0.9128 0.4083 -0.0000
vn -0.2926 0.4423 0.8478
vn -0.8460 0.5331 -0.0000
vn -0.0000 -1.0000 -0.0000
vn 0.5678 0.4027 0.7180
vn -0.3735 0.6671 -0.6445
vn 0.7111 0.7031 -0.0000
vn 0.6607 0.6515 -0.3728
vn 0.9497 -0.3123 -0.0236
vn 0.3806 0.9225 -0.0646
vn -0.0000 0.5519 0.8339
vn -0.0633 0.3595 0.9310
vn -0.1390 0.4501 0.8821
vn -0.3555 0.3467 0.8680
vn -0.0333 0.9989 -0.0333
vn 0.5073 0.8578 -0.0825
vn -0.0000 0.7349 -0.6782
vn -0.1944 0.6951 0.6922
vn -0.0000 0.5957 -0.8032
vn -0.0000 0.1518 -0.9884
vn -0.0000 0.8871 -0.4615
vn 0.2420 0.4140 -0.8775
vn 0.2979 0.6361 -0.7118
vn -0.0000 0.2698 -0.9629
vn -0.3305 0.1846 0.9256
vn -0.0000 0.3301 0.9439
vn 0.8044 0.4477 -0.3906
vn 0.9972 0.0745 -0.0000
vn -0.2948 0.4074 -0.8644
vn 0.3974 0.6740 0.6227
vn -0.9375 0.3481 -0.0000
vn -0.2644 0.6198 0.7388
vn -0.2726 0.4598 0.8451
vn 0.5626 0.4247 0.7093
vn 0.9413 -0.3367 -0.0234
vn -0.0612 0.4299 0.9008
vn -0.0000 0.1719 -0.9851
vn 0.2308 0.4321 -0.8718
vn -0.3389 0.1897 0.9215
vn 0.7912 0.4742 -0.3861
vn -0.2816 0.4258 -0.8599
vn -0.9259 0.3777 -0.0000
vt 0.625000 0.500000
vt 0.375000 0.500000
vt 0.625000 0.750000
vt 0.375000 0.750000
vt 0.625000 0.250000
vt 0.125000 0.500000
vt 0.375000 0.250000
vt 0.875000 0.750000
vt 0.625000 0.000000
vt 0.125000 0.750000
vt 0.375000 0.000000
vt 0.625000 0.500000
vt 0.375000 0.500000
vt 0.625000 0.750000
vt 0.375000 0.750000
vt 0.375000 0.000000
vt 0.125000 0.750000
vt 0.375000 1.000000
vt 0.625000 1.000000
vt 0.875000 0.750000
vt 0.625000 0.000000
vt 0.625000 0.750000
vt 0.375000 0.750000
vt 0.625000 0.750000
vt 0.625000 0.000000
vt 0.875000 0.750000
vt 0.625000 0.500000
vt 0.875000 0.500000
vt 0.625000 0.250000
vt 0.375000 0.500000
vt 0.125000 0.500000
vt 0.375000 0.250000
vt 0.625000 0.500000
vt 0.625000 0.250000
vt 0.500000 0.500000
vt 0.500000 0.000000
vt 0.500000 0.750000
vt 0.500000 0.250000
vt 0.500000 0.500000
vt 0.500000 0.750000
vt 0.500000 1.000000
vt 0.500000 0.000000
vt 0.500000 0.750000
vt 0.500000 0.500000
vt 0.500000 0.250000
vt 0.625000 0.500000
vt 0.375000 0.500000
vt 0.625000 0.750000
vt 0.375000 0.750000
vt 0.625000 0.250000
vt 0.125000 0.500000
vt 0.375000 0.250000
vt 0.875000 0.750000
vt 0.625000 0.000000
vt 0.125000 0.750000
vt 0.375000 0.000000
vt 0.625000 0.500000
vt 0.375000 0.500000
vt 0.625000 0.750000
vt 0.375000 0.750000
vt 0.375000 0.000000
vt 0.125000 0.750000
vt 0.375000 1.000000
vt 0.625000 1.000000
vt 0.875000 0.750000
vt 0.625000 0.000000
vt 0.625000 0.750000
vt 0.375000 0.750000
vt 0.625000 0.750000
vt 0.625000 0.000000
vt 0.875000 0.750000
vt 0.625000 0.500000
vt 0.875000 0.500000
vt 0.625000 0.250000
vt 0.375000 0.500000
vt 0.125000 0.500000
vt 0.375000 0.250000
vt 0.625000 0.500000
vt 0.625000 0.250000
vt 0.500000 0.500000
vt 0.500000 0.000000
vt 0.500000 0.750000
vt 0.500000 0.250000
vt 0.500000 0.500000
vt 0.500000 0.750000
vt 0.500000 1.000000
vt 0.500000 0.000000
vt 0.500000 0.750000
vt 0.500000 0.500000
vt 0.500000 0.250000
vt 0.625000 0.500000
vt 0.375000 0.500000
vt 0.625000 0.750000
vt 0.375000 0.750000
vt 0.625000 0.250000
vt 0.125000 0.500000
vt 0.375000 0.250000
vt 0.875000 0.750000
vt 0.625000 0.000000
vt 0.125000 0.750000
vt 0.375000 0.000000
vt 0.625000 0.500000
vt 0.375000 0.500000
vt 0.625000 0.750000
vt 0.375000 0.750000
vt 0.375000 0.000000
vt 0.125000 0.750000
vt 0.375000 1.000000
vt 0.625000 1.000000
vt 0.875000 0.750000
vt 0.625000 0.000000
vt 0.625000 0.750000
vt 0.375000 0.750000
vt 0.625000 0.750000
vt 0.625000 0.000000
vt 0.875000 0.750000
vt 0.625000 0.500000
vt 0.875000 0.500000
vt 0.625000 0.250000
vt 0.375000 0.500000
vt 0.125000 0.500000
vt 0.375000 0.250000
vt 0.625000 0.500000
vt 0.625000 0.250000
vt 0.500000 0.500000
vt 0.500000 0.000000
vt 0.500000 0.750000
vt 0.500000 0.250000
vt 0.500000 0.500000
vt 0.500000 0.750000
vt 0.500000 1.000000
vt 0.500000 0.000000
vt 0.500000 0.750000
vt 0.500000 0.500000
vt 0.500000 0.250000
vt 0.625000 0.500000
vt 0.375000 0.500000
vt 0.625000 0.750000
vt 0.375000 0.750000
vt 0.625000 0.250000
vt 0.125000 0.500000
vt 0.375000 0.250000
vt 0.875000 0.750000
vt 0.625000 0.000000
vt 0.125000 0.750000
vt 0.375000 0.000000
vt 0.625000 0.500000
vt 0.375000 0.500000
vt 0.625000 0.750000
vt 0.375000 0.750000
vt 0.375000 0.000000
vt 0.125000 0.750000
vt 0.375000 1.000000
vt 0.625000 1.000000
vt 0.875000 0.750000
vt 0.625000 0.000000
vt 0.625000 0.750000
vt 0.375000 0.750000
vt 0.625000 0.750000
vt 0.625000 0.000000
vt 0.875000 0.750000
vt 0.625000 0.500000
vt 0.875000 0.500000
vt 0.625000 0.250000
vt 0.375000 0.500000
vt 0.125000 0.500000
vt 0.375000 0.250000
vt 0.625000 0.500000
vt 0.625000 0.250000
vt 0.500000 0.500000
vt 0.500000 0.000000
vt 0.500000 0.750000
vt 0.500000 0.250000
vt 0.500000 0.500000
vt 0.500000 0.750000
vt 0.500000 1.000000
vt 0.500000 0.000000
vt 0.500000 0.750000
vt 0.500000 0.500000
vt 0.500000 0.250000
vt 0.625000 0.500000
vt 0.375000 0.500000
vt 0.625000 0.750000
vt 0.375000 0.750000
vt 0.625000 0.250000
vt 0.125000 0.500000
vt 0.375000 0.250000
vt 0.875000 0.750000
vt 0.625000 0.000000
vt 0.125000 0.750000
vt 0.375000 0.000000
vt 0.625000 0.500000
vt 0.375000 0.500000
vt 0.625000 0.750000
vt 0.375000 0.750000
vt 0.375000 0.000000
vt 0.125000 0.750000
vt 0.375000 1.000000
vt 0.625000 1.000000
vt 0.875000 0.750000
vt 0.625000 0.000000
vt 0.625000 0.750000
vt 0.375000 0.750000
vt 0.625000 0.750000
vt 0.625000 0.000000
vt 0.875000 0.750000
vt 0.625000 0.500000
vt 0.875000 0.500000
vt 0.625000 0.250000
vt 0.375000 0.500000
vt 0.125000 0.500000
vt 0.375000 0.250000
vt 0.625000 0.500000
vt 0.625000 0.250000
vt 0.500000 0.500000
vt 0.500000 0.000000
vt 0.500000 0.750000
vt 0.500000 0.250000
vt 0.500000 0.500000
vt 0.500000 0.750000
vt 0.500000 1.000000
vt 0.500000 0.000000
vt 0.500000 0.750000
vt 0.500000 0.500000
vt 0.500000 0.250000
s 0
usemtl Material
f 5/5/1 7/9/1 18/25/1 20/29/1
f 26/36/2 8/11/2 13/16/2 31/42/2
f 26/36/3 7/9/3 5/5/3 28/38/3
f 6/6/4 2/2/4 4/4/4 8/10/4
f 27/37/5 4/4/5 12/15/5 30/40/5
f 28/38/6 5/5/6 24/34/6 34/45/6
f 29/39/7 9/12/7 11/14/7 30/40/7
f 25/35/8 1/1/8 9/12/8 29/39/8
f 4/4/9 2/2/9 10/13/9 12/15/9
f 1/1/10 3/3/10 11/14/10 9/12/10
f 32/43/11 15/22/11 14/19/11 31/41/11
f 8/10/12 4/4/12 16/23/12 13/17/12
f 3/3/13 7/8/13 14/20/13 15/22/13
f 27/37/14 3/3/14 15/22/14 32/43/14
f 19/27/15 20/28/15 18/26/15 17/24/15
f 3/3/16 1/1/16 19/27/16 17/24/16
f 1/1/17 5/5/17 20/29/17 19/27/17
f 7/8/18 3/3/18 17/24/18 18/26/18
f 34/45/19 24/34/19 23/33/19 33/44/19
f 2/2/20 6/6/20 22/31/20 21/30/20
f 5/5/21 1/1/21 23/33/21 24/34/21
f 25/35/22 2/2/22 21/30/22 33/44/22
f 1/1/23 25/35/23 33/44/23 23/33/23
f 22/32/24 34/45/24 33/44/24 21/30/24
f 4/4/25 27/37/25 32/43/25 16/23/25
f 16/23/26 32/43/26 31/41/26 13/18/26
f 2/2/27 25/35/27 29/39/27 10/13/27
f 10/13/28 29/39/28 30/40/28 12/15/28
f 6/7/29 28/38/29 34/45/29 22/32/29
f 3/3/30 27/37/30 30/40/30 11/14/30
f 8/11/31 26/36/31 28/38/31 6/7/31
f 7/9/32 26/36/32 31/42/32 14/21/32
f 39/50/1 41/54/1 52/70/1 54/74/1
f 60/81/33 42/56/33 47/61/33 65/87/33
f 60/81/3 41/54/3 39/50/3 62/83/3
f 40/51/4 36/47/4 38/49/4 42/55/4
f 61/82/34 38/49/34 46/60/34 64/85/34
f 62/83/6 39/50/6 58/79/6 68/90/6
f 63/84/7 43/57/7 45/59/7 64/85/7
f 59/80/8 35/46/8 43/57/8 63/84/8
f 38/49/35 36/47/35 44/58/35 46/60/35
f 35/46/10 37/48/10 45/59/10 43/57/10
f 66/88/11 49/67/11 48/64/11 65/86/11
f 42/55/36 38/49/36 50/68/36 47/62/36
f 37/48/13 41/53/13 48/65/13 49/67/13
f 61/82/14 37/48/14 49/67/14 66/88/14
f 53/72/15 54/73/15 52/71/15 51/69/15
f 37/48/16 35/46/16 53/72/16 51/69/16
f 35/46/17 39/50/17 54/74/17 53/72/17
f 41/53/18 37/48/18 51/69/18 52/71/18
f 68/90/19 58/79/19 57/78/19 67/89/19
f 36/47/37 40/51/37 56/76/37 55/75/37
f 39/50/21 35/46/21 57/78/21 58/79/21
f 59/80/38 36/47/38 55/75/38 67/89/38
f 35/46/23 59/80/23 67/89/23 57/78/23
f 56/77/24 68/90/24 67/89/24 55/75/24
f 38/49/39 61/82/39 66/88/39 50/68/39
f 50/68/26 66/88/26 65/86/26 47/63/26
f 36/47/40 59/80/40 63/84/40 44/58/40
f 44/58/28 63/84/28 64/85/28 46/60/28
f 40/52/41 62/83/41 68/90/41 56/77/41
f 37/48/30 61/82/30 64/85/30 45/59/30
f 42/56/42 60/81/42 62/83/42 40/52/42
f 41/54/32 60/81/32 65/87/32 48/66/32
f 73/95/1 75/99/1 86/115/1 88/119/1
f 94/126/2 76/101/2 81/106/2 99/132/2
f 94/126/3 75/99/3 73/95/3 96/128/3
f 74/96/4 70/92/4 72/94/4 76/100/4
f 95/127/5 72/94/5 80/105/5 98/130/5
f 96/128/6 73/95/6 92/124/6 102/135/6
f 97/129/7 77/102/7 79/104/7 98/130/7
f 93/125/8 69/91/8 77/102/8 97/129/8
f 72/94/9 70/92/9 78/103/9 80/105/9
f 69/91/10 71/93/10 79/104/10 77/102/10
f 100/133/11 83/112/11 82/109/11 99/131/11
f 76/100/12 72/94/12 84/113/12 81/107/12
f 71/93/13 75/98/13 82/110/13 83/112/13
f 95/127/14 71/93/14 83/112/14 100/133/14
f 87/117/15 88/118/15 86/116/15 85/114/15
f 71/93/16 69/91/16 87/117/16 85/114/16
f 69/91/17 73/95/17 88/119/17 87/117/17
f 75/98/18 71/93/18 85/114/18 86/116/18
f 102/135/19 92/124/19 91/123/19 101/134/19
f 70/92/20 74/96/20 90/121/20 89/120/20
f 73/95/21 69/91/21 91/123/21 92/124/21
f 93/125/22 70/92/22 89/120/22 101/134/22
f 69/91/23 93/125/23 101/134/23 91/123/23
f 90/122/24 102/135/24 101/134/24 89/120/24
f 72/94/25 95/127/25 100/133/25 84/113/25
f 84/113/26 100/133/26 99/131/26 81/108/26
f 70/92/27 93/125/27 97/129/27 78/103/27
f 78/103/28 97/129/28 98/130/28 80/105/28
f 74/97/29 96/128/29 102/135/29 90/122/29
f 71/93/30 95/127/30 98/130/30 79/104/30
f 76/101/31 94/126/31 96/128/31 74/97/31
f 75/99/32 94/126/32 99/132/32 82/111/32
f 107/140/1 109/144/1 120/160/1 122/164/1
f 128/171/2 110/146/2 115/151/2 133/177/2
f 128/171/3 109/144/3 107/140/3 130/173/3
f 108/141/4 104/137/4 106/139/4 110/145/4
f 129/172/5 106/139/5 114/150/5 132/175/5
f 130/173/6 107/140/6 126/169/6 136/180/6
f 131/174/7 111/147/7 113/149/7 132/175/7
f 127/170/8 103/136/8 111/147/8 131/174/8
f 106/139/9 104/137/9 112/148/9 114/150/9
f 103/136/10 105/138/10 113/149/10 111/147/10
f 134/178/11 117/157/11 116/154/11 133/176/11
f 110/145/12 106/139/12 118/158/12 115/152/12
f 105/138/13 109/143/13 116/155/13 117/157/13
f 129/172/14 105/138/14 117/157/14 134/178/14
f 121/162/15 122/163/15 120/161/15 119/159/15
f 105/138/16 103/136/16 121/162/16 119/159/16
f 103/136/17 107/140/17 122/164/17 121/162/17
f 109/143/18 105/138/18 119/159/18 120/161/18
f 136/180/19 126/169/19 125/168/19 135/179/19
f 104/137/20 108/141/20 124/166/20 123/165/20
f 107/140/21 103/136/21 125/168/21 126/169/21
f 127/170/22 104/137/22 123/165/22 135/179/22
f 103/136/23 127/170/23 135/179/23 125/168/23
f 124/167/24 136/180/24 135/179/24 123/165/24
f 106/139/25 129/172/25 134/178/25 118/158/25
f 118/158/26 134/178/26 133/176/26 115/153/26
f 104/137/27 127/170/27 131/174/27 112/148/27
f 112/148/28 131/174/28 132/175/28 114/150/28
f 108/142/29 130/173/29 136/180/29 124/167/29
f 105/138/30 129/172/30 132/175/30 113/149/30
f 110/146/31 128/171/31 130/173/31 108/142/31
f 109/144/32 128/171/32 133/177/32 116/156/32
f 141/185/1 143/189/1 154/205/1 156/209/1
f 162/216/2 144/191/2 149/196/2 167/222/2
f 162/216/3 143/189/3 141/185/3 164/218/3
f 142/186/4 138/182/4 140/184/4 144/190/4
f 163/217/5 140/184/5 148/195/5 166/220/5
f 164/218/6 141/185/6 160/214/6 170/225/6
f 165/219/7 145/192/7 147/194/7 166/220/7
f 161/215/8 137/181/8 145/192/8 165/219/8
f 140/184/9 138/182/9 146/193/9 148/195/9
f 137/181/10 139/183/10 147/194/10 145/192/10
f 168/223/11 151/202/11 150/199/11 167/221/11
f 144/190/12 140/184/12 152/203/12 149/197/12
f 139/183/13 143/188/13 150/200/13 151/202/13
f 163/217/14 139/183/14 151/202/14 168/223/14
f 155/207/15 156/208/15 154/206/15 153/204/15
f 139/183/16 137/181/16 155/207/16 153/204/16
f 137/181/17 141/185/17 156/209/17 155/207/17
f 143/188/18 139/183/18 153/204/18 154/206/18
f 170/225/19 160/214/19 159/213/19 169/224/19
f 138/182/20 142/186/20 158/211/20 157/210/20
f 141/185/21 137/181/21 159/213/21 160/214/21
f 161/215/22 138/182/22 157/210/22 169/224/22
f 137/181/23 161/215/23 169/224/23 159/213/23
f 158/212/24 170/225/24 169/224/24 157/210/24
f 140/184/25 163/217/25 168/223/25 152/203/25
f 152/203/26 168/223/26 167/221/26 149/198/26
f 138/182/27 161/215/27 165/219/27 146/193/27
f 146/193/28 165/219/28 166/220/28 148/195/28
f 142/187/29 164/218/29 170/225/29 158/212/29
f 139/183/30 163/217/30 166/220/30 147/194/30
f 144/191/31 162/216/31 164/218/31 142/187/31
f 143/189/32 162/216/32 167/222/32 150/201/32
